PathFileType	4	(X/Y/Z)	RBDS020\RBDS020runT45.trc
DataRate	CameraRate	NumFrames	NumMarkers	Units	OrigDataRate	OrigDataStartFrame	OrigNumFrames
150.000000	150.000000	6	33	mm	150.000000	3375	4500
Frame#	Time	L.ASIS			L.Heel.Bottom			L.Heel.Lateral			L.Heel.Top			L.Iliac.Crest			L.MT1			L.MT5			L.PSIS			L.Shank.Bottom.Lateral			L.Shank.Bottom.Medial			L.Shank.Top.Lateral			L.Shank.Top.Medial			L.Thigh.Bottom.Lateral			L.Thigh.Bottom.Medial			L.Thigh.Top.Lateral			L.Thigh.Top.Medial			R.ASIS			R.ASY			R.Heel.Bottom			R.Heel.Lateral			R.Heel.Top			R.Iliac.Crest			R.MT1			R.MT5			R.PSIS			R.Shank.Bottom.Lateral			R.Shank.Bottom.Medial			R.Shank.Top.Lateral			R.Shank.Top.Medial			R.Thigh.Bottom.Lateral			R.Thigh.Bottom.Medial			R.Thigh.Top.Lateral			R.Thigh.Top.Medial			
		X1	Y1	Z1	X2	Y2	Z2	X3	Y3	Z3	X4	Y4	Z4	X5	Y5	Z5	X6	Y6	Z6	X7	Y7	Z7	X8	Y8	Z8	X9	Y9	Z9	X10	Y10	Z10	X11	Y11	Z11	X12	Y12	Z12	X13	Y13	Z13	X14	Y14	Z14	X15	Y15	Z15	X16	Y16	Z16	X17	Y17	Z17	X18	Y18	Z18	X19	Y19	Z19	X20	Y20	Z20	X21	Y21	Z21	X22	Y22	Z22	X23	Y23	Z23	X24	Y24	Z24	X25	Y25	Z25	X26	Y26	Z26	X27	Y27	Z27	X28	Y28	Z28	X29	Y29	Z29	X30	Y30	Z30	X31	Y31	Z31	X32	Y32	Z32	X33	Y33	Z33	

3376	22.5	2254.832257021417	979.1636915535706	881.554456625212	1793.71858740092	68.56774654012339	998.4327033553153	1816.675498314286	83.70937950509095	951.6272570402042	1812.091360980029	113.2670981634894	994.7693361429961	2194.804688201004	1020.945313654898	856.1510110329291	2011.900970778562	47.37404978586405	1004.991802223481	1960.925483359171	41.11673633923798	905.1633815212816	2103.651666633705	1018.008156564994	966.4111224616665	1924.825196696903	179.8648580574027	918.7186743149904	1894.222056337916	209.5732891872229	954.5509753994304	1963.050845841721	247.1187203777942	897.4962455094081	1934.910446928858	276.3345439287697	932.9248262651637	2150.787555911667	630.6869865079034	837.9620091783456	2088.883656369092	632.6879263880401	876.3177239753196	2146.542097201163	739.7474116361229	827.508607212165	2089.789492211113	742.1466416217758	868.1336957283432	2272.783411799402	982.602759646495	1112.753169121583	2155.606003545163	200.7982449293353	1071.756568484595	2005.317153854372	325.82982396191	1066.169121189774	2035.241379957162	313.2414807569656	1109.69075923392	2044.403335408183	343.0419282848698	1064.881601312577	2221.053495172085	1025.802834930409	1156.118428519205	2134.25558522684	159.5520122057221	1025.869376341625	2116.628257109351	171.4043585212271	1134.369623192516	2111.045239390692	1017.247926341425	1062.66615017623	2179.272779344956	353.6461721558557	1122.656894449972	2157.543042710975	391.4949778161788	1095.470260402956	2247.602342361813	403.1837043484684	1133.944380254301	2220.406162570788	441.0369297760408	1108.115650584983	2362.640638366922	637.6923124379201	1157.92087783164	2317.859660973944	602.5233637632068	1115.065205339098	2286.066941444811	717.2003468764057	1171.540459433227	2242.408662397064	681.8614705995074	1132.415627393651	
3377	22.50666666666667	2257.148683731395	980.3636649362675	881.1300786260973	1767.387791761804	79.95846697329098	997.5363063500856	1791.048720305532	93.11343927465052	950.5159823894304	1787.904775113951	123.4959329042617	993.1749456855418	2199.674066967857	1023.744375045645	856.4993622602602	1983.291515268186	46.73139073050822	1004.836427084716	1931.77509782795	41.97254066442035	904.7939062895178	2106.40327627285	1021.45327032174	965.9414916407771	1900.4965911733	187.7163771011864	917.3616442836123	1870.633164359376	217.2375490684261	953.9617818588976	1939.402118634281	254.8232789252407	896.795631221391	1911.908780379425	283.8232272620855	932.9086369155332	2139.314477785827	635.1025592305613	838.4121467136341	2077.675481968362	640.0324547192331	876.8795595446669	2140.201866744498	744.1982470191851	827.9078260992038	2083.600589953861	749.2835486154562	868.5331339409942	2274.556483613108	987.3402956000525	1111.541176460283	2186.585980377993	190.4352442596001	1070.329148020008	2027.319361400732	303.9883409867502	1065.46447042994	2057.959371859052	293.1616655579654	1108.879734680914	2065.094906833279	324.1352826771353	1064.458605325121	2223.706732718716	1031.826234744994	1155.822820188064	2168.519423940836	148.0114759398327	1024.204648527038	2149.69516834944	157.558722161075	1132.463528636169	2113.6329711485	1021.893988039275	1062.379070711072	2199.332658773684	344.255952890489	1121.74200739393	2174.864798820661	380.6395745973041	1094.853402215722	2263.984879594072	398.4978834524549	1133.158165603608	2234.107533676007	434.5069659095118	1107.610397939741	2369.218741366154	645.8749932750137	1157.258423371899	2325.120408360104	610.0280050822387	1114.624444383252	2291.251447978256	724.0268860533207	1171.567537692171	2248.03878679224	687.7163767700276	1132.869742021344	
3378	22.51333333333334	2259.870633650098	981.7877530457098	880.8967278038529	1742.658046145008	92.98937443111136	996.304086004013	1767.013716543512	103.9400737413059	949.0960722101343	1765.54298436194	135.0505405419155	991.2435468818818	2205.123394225132	1026.64693302966	857.020977809391	1955.247388987553	46.31522250508075	1004.441772594452	1903.300201637899	43.3578280656705	904.1426990014164	2109.429075583453	1025.150156344052	965.5743698929073	1877.632601740629	196.4415751272488	915.7067258973509	1848.47637701642	225.6241835153134	953.1433303918293	1917.063851182751	263.5234687826702	895.8704771406235	1890.186126401913	292.1563492029049	932.7445743450718	2128.377614850408	640.5258389295113	838.811011821013	2067.275069445294	648.3403710634224	877.5845499485898	2134.310743797685	749.4069948973734	828.2491811726919	2078.146460645075	757.1198067040339	869.073708227633	2276.319174229532	991.9452778221828	1110.581810422576	2218.352545168164	180.4969846974494	1068.98885370613	2050.775016752464	281.8199970934072	1064.175670752368	2081.902216482099	272.8963522459164	1107.588490794518	2087.024921012003	304.8235468570438	1063.542924321667	2226.098209889248	1037.698364009415	1155.587063578623	2203.781623720361	137.1027913684145	1022.623687757499	2183.660759686455	144.3607698864528	1130.578722404212	2116.411613492233	1026.568372546467	1062.165376124849	2219.776842449036	334.6976680449213	1120.705588928835	2192.698537879971	369.3538578607304	1093.993604886308	2280.296732515582	393.489901499666	1132.357516886153	2247.891915058725	427.3965200154901	1106.934555721303	2374.874513087753	653.6343569463622	1156.60550657594	2331.272834895821	617.1703394201706	1114.335006255704	2295.88019935679	730.7288500252944	1171.462068644342	2252.973962160103	693.5610963315409	1133.274045671429	
3379	22.52	2262.923881899686	983.3981670395955	880.8647086111691	1719.715095069358	107.548343721933	994.6702644744073	1744.724905702353	116.1077167434234	947.3182307951487	1745.140264557892	147.798877791986	988.9468272415643	2211.009097431061	1029.602081685513	857.6965390026664	1927.779211429686	46.27013474755813	1003.792140188157	1875.606152627354	45.39539375931766	903.209786008273	2112.670807102284	1029.076680236315	965.2875692971406	1856.357522957209	205.8476746959228	913.7764806825834	1827.855361277903	234.5629773160714	952.0848564873738	1896.1819201648	273.0096389103586	894.7403600650221	1869.870793693925	301.1493786570649	932.418449864989	2118.052888548937	646.8005557069248	839.1908480743316	2057.732721613062	657.4250730698813	878.4551848064115	2128.891892722768	755.2428596990616	828.5478532001331	2073.445733189835	765.4931041250667	869.7850512160092	2278.012488875953	996.295468956734	1109.89335145376	2250.846676745802	171.1406998240775	1067.75502370481	2075.757009414932	259.5631170518486	1062.344480190423	2107.128491105818	252.6404864108133	1105.857291709313	2110.256815323811	285.3144578694849	1062.164163038144	2228.130778413326	1043.242883245921	1155.412757410864	2239.954216941574	127.0388935831864	1021.142489352858	2218.46593900154	131.966156850744	1128.74757238305	2119.314479919482	1031.209375778971	1062.006210107398	2240.619339333441	325.0414004835504	1119.58633115017	2211.10289776358	357.731735307712	1092.920974593447	2296.573838167734	388.1492162380061	1131.574300587867	2261.840399745737	419.7221720999229	1106.113743047301	2379.549997578421	660.7471650431568	1155.904122600037	2336.220107779933	623.7125474763686	1114.143532517618	2299.87327171296	737.0842090444837	1171.150852271857	2257.118931951892	699.1967750215509	1133.542217579319	
3380	22.52666666666667	2266.215032446076	985.1488237079145	881.0251925704264	1698.67500739232	123.4792565197451	992.5781643273294	1724.27247401255	129.4966642957193	945.144111341912	1726.751415276615	161.5799425327133	986.2702100010698	2217.161837952864	1032.577096000035	858.4872593503762	1900.875585119343	46.76627372958852	1002.899564999798	1848.782992729762	48.21179163102767	902.0216652417175	2116.056303859206	1033.196204029229	965.0452030986507	1836.745447258799	215.7366491199277	911.6111889744702	1808.819414826685	243.8944544176176	950.7814939718093	1876.868237222131	283.054748741406	893.4367228874974	1851.052988346737	310.6153832900578	931.9158598002512	2108.431074829894	653.7235545667467	839.5873195201196	2049.096542808903	667.0501734794751	879.4969567099182	2123.977456365348	761.5346238497375	828.8188751108905	2069.503064560781	774.2012149874994	870.6706197398076	2279.592432296527	1000.28912363684	1109.462843015528	2283.95636259394	162.540989982811	1066.639131622014	2102.292445046286	237.4579638035346	1060.023392563455	2133.654366354315	232.5911631704043	1103.734404350014	2134.807532512524	265.8190985428051	1060.365700491313	2229.771413787674	1048.323100018409	1155.288671590051	2276.895598653105	118.047623681047	1019.770279981448	2254.00820817455	120.5429894551057	1126.989072553792	2122.270124785613	1035.761669509438	1061.871698540686	2261.837410618251	315.3661764491939	1118.426071423647	2230.09224748094	345.8813419801223	1091.676527019541	2312.824774509835	382.4791986457703	1130.843306374412	2275.999927686617	411.5181306160087	1105.186142917298	2383.1905588761	666.9998662323367	1155.114082827243	2339.885827212606	629.4423637759861	1113.989363509813	2303.148631758232	742.8725988638796	1170.584696420956	2260.388833980956	704.4325218876191	1133.593851731633	
3381	22.53333333333333	2269.636759462868	986.9878606049646	881.3519316990921	1679.573055573046	140.5924098193169	989.988423169374	1705.673722760275	143.9572904378078	942.553218369271	1710.343399193503	176.2171165511835	983.2175043772636	2223.392393543467	1035.553855512981	859.3393608892075	1874.512858141868	47.9948129667702	1001.80497301172	1822.904160952874	51.93154937489172	900.629427353858	2119.499840484579	1037.45372455707	964.8030954410057	1818.815284770371	225.9254127966769	909.2661695785014	1791.364268231411	253.4895009243229	949.2363054309272	1859.19682271056	293.4334246416838	892.0001107864301	1833.785804564801	320.3832901647787	931.2238597005048	2099.619922582718	661.0510900659443	840.0334928841197	2041.416679687897	676.937956131332	880.6937798236158	2119.61322402404	768.0755473649638	829.0737187851009	2066.31254997087	783.0098133074539	871.7022332936476	2281.027210299695	1003.850007065204	1109.251791844858	2317.508809343881	154.8847133642343	1065.643463449224	2130.351861092864	215.7421619772609	1057.278855937928	2161.445893322536	212.946044456729	1101.278661390805	2160.637946050801	246.5465408706264	1058.206816349508	2231.038869770053	1052.844450442457	1155.193819706146	2314.401378401726	110.3650746647463	1018.50879315416	2290.13732238705	110.2721576437902	1125.310260905241	2125.201492172213	1040.171239088373	1061.725602010494	2283.366383878052	305.7605339074569	1117.266402909686	2249.62941076624	333.923511057445	1090.310407778445	2329.024827745955	376.5004976646445	1130.198063970549	2290.374620448826	402.8375776879737	1104.199536061011	2385.749848229531	672.2037737966839	1154.224325257918	2342.225688006427	634.1890114447383	1113.813300182896	2305.629105842348	747.8919419981095	1169.74995035272	2262.718806656424	709.0978691205693	1133.366366741651	
